<svg xmlns="http://www.w3.org/2000/svg" xmlns:xlink="http://www.w3.org/1999/xlink" viewBox="0 0 500 500" width="500" height="500" preserveAspectRatio="xMidYMid meet" style="width: 100%; height: 100%; transform: translate3d(0px, 0px, 0px); content-visibility: visible;" id="Confetti Loader"><defs><clipPath id="__lottie_element_45405"><rect width="500" height="500" x="0" y="0"/></clipPath><clipPath id="__lottie_element_45407"><path d="M0,0 L500,0 L500,500 L0,500z"/></clipPath><clipPath id="__lottie_element_45411"><path d="M0,0 L500,0 L500,500 L0,500z"/></clipPath><clipPath id="__lottie_element_45415"><path d="M0,0 L500,0 L500,500 L0,500z"/></clipPath><clipPath id="__lottie_element_45419"><path d="M0,0 L500,0 L500,500 L0,500z"/></clipPath><clipPath id="__lottie_element_45423"><path d="M0,0 L500,0 L500,500 L0,500z"/></clipPath><clipPath id="__lottie_element_45427"><path d="M0,0 L500,0 L500,500 L0,500z"/></clipPath><clipPath id="__lottie_element_45431"><path d="M0,0 L500,0 L500,500 L0,500z"/></clipPath><clipPath id="__lottie_element_45435"><path d="M0,0 L500,0 L500,500 L0,500z"/></clipPath><clipPath id="__lottie_element_45439"><path d="M0,0 L500,0 L500,500 L0,500z"/></clipPath><clipPath id="__lottie_element_45443"><path d="M0,0 L500,0 L500,500 L0,500z"/></clipPath><clipPath id="__lottie_element_45447"><path d="M0,0 L500,0 L500,500 L0,500z"/></clipPath><clipPath id="__lottie_element_45451"><path d="M0,0 L500,0 L500,500 L0,500z"/></clipPath><clipPath id="__lottie_element_45455"><path d="M0,0 L500,0 L500,500 L0,500z"/></clipPath><clipPath id="__lottie_element_45459"><path d="M0,0 L500,0 L500,500 L0,500z"/></clipPath><clipPath id="__lottie_element_45463"><path d="M0,0 L500,0 L500,500 L0,500z"/></clipPath><clipPath id="__lottie_element_45467"><path d="M0,0 L500,0 L500,500 L0,500z"/></clipPath><clipPath id="__lottie_element_45471"><path d="M0,0 L500,0 L500,500 L0,500z"/></clipPath><clipPath id="__lottie_element_45475"><path d="M0,0 L500,0 L500,500 L0,500z"/></clipPath><clipPath id="__lottie_element_45479"><path d="M0,0 L500,0 L500,500 L0,500z"/></clipPath><clipPath id="__lottie_element_45483"><path d="M0,0 L500,0 L500,500 L0,500z"/></clipPath><clipPath id="__lottie_element_45487"><path d="M0,0 L500,0 L500,500 L0,500z"/></clipPath><clipPath id="__lottie_element_45491"><path d="M0,0 L500,0 L500,500 L0,500z"/></clipPath><clipPath id="__lottie_element_45495"><path d="M0,0 L500,0 L500,500 L0,500z"/></clipPath><clipPath id="__lottie_element_45499"><path d="M0,0 L500,0 L500,500 L0,500z"/></clipPath><clipPath id="__lottie_element_45503"><path d="M0,0 L500,0 L500,500 L0,500z"/></clipPath><clipPath id="__lottie_element_45507"><path d="M0,0 L500,0 L500,500 L0,500z"/></clipPath><clipPath id="__lottie_element_45511"><path d="M0,0 L500,0 L500,500 L0,500z"/></clipPath><clipPath id="__lottie_element_45515"><path d="M0,0 L500,0 L500,500 L0,500z"/></clipPath><clipPath id="__lottie_element_45519"><path d="M0,0 L500,0 L500,500 L0,500z"/></clipPath><clipPath id="__lottie_element_45523"><path d="M0,0 L500,0 L500,500 L0,500z"/></clipPath></defs><g clip-path="url(#__lottie_element_45405)"><g clip-path="url(#__lottie_element_45407)" transform="matrix(-0.258819043636322,-0.9659258127212524,0.9659258127212524,-0.258819043636322,73.22329711914062,556.1862182617188)" opacity="1" style="display: block;"><g transform="matrix(0.028131235390901566,0,0,0.028131235390901566,250,155.3776397705078)" opacity="0.9999949419174022" style="display: block;"><g opacity="1" transform="matrix(1,0,0,1,0,0)"><path fill="rgb(255,89,176)" fill-opacity="1" d=" M0,-250 C137.97500610351562,-250 250,-137.97500610351562 250,0 C250,137.97500610351562 137.97500610351562,250 0,250 C-137.97500610351562,250 -250,137.97500610351562 -250,0 C-250,-137.97500610351562 -137.97500610351562,-250 0,-250z"/></g></g></g><g clip-path="url(#__lottie_element_45411)" transform="matrix(0.258819043636322,-0.9659258127212524,0.9659258127212524,0.258819043636322,-56.18621826171875,426.7767028808594)" opacity="1" style="display: block;"><g transform="matrix(0.028131235390901566,0,0,0.028131235390901566,250,155.3776397705078)" opacity="0.9999949419174022" style="display: block;"><g opacity="1" transform="matrix(1,0,0,1,0,0)"><path fill="rgb(255,89,176)" fill-opacity="1" d=" M0,-250 C137.97500610351562,-250 250,-137.97500610351562 250,0 C250,137.97500610351562 137.97500610351562,250 0,250 C-137.97500610351562,250 -250,137.97500610351562 -250,0 C-250,-137.97500610351562 -137.97500610351562,-250 0,-250z"/></g></g></g><g clip-path="url(#__lottie_element_45415)" transform="matrix(0.7071067690849304,-0.7071067690849304,0.7071067690849304,0.7071067690849304,-103.55340576171875,250)" opacity="1" style="display: block;"><g transform="matrix(0.028131235390901566,0,0,0.028131235390901566,250,155.3776397705078)" opacity="0.9999949419174022" style="display: block;"><g opacity="1" transform="matrix(1,0,0,1,0,0)"><path fill="rgb(255,89,176)" fill-opacity="1" d=" M0,-250 C137.97500610351562,-250 250,-137.97500610351562 250,0 C250,137.97500610351562 137.97500610351562,250 0,250 C-137.97500610351562,250 -250,137.97500610351562 -250,0 C-250,-137.97500610351562 -137.97500610351562,-250 0,-250z"/></g></g></g><g clip-path="url(#__lottie_element_45419)" transform="matrix(-0.9659258127212524,0.258819043636322,-0.258819043636322,-0.9659258127212524,556.1862182617188,426.7767028808594)" opacity="1" style="display: block;"><g transform="matrix(0.028131235390901566,0,0,0.028131235390901566,250,155.3776397705078)" opacity="0.9999949419174022" style="display: block;"><g opacity="1" transform="matrix(1,0,0,1,0,0)"><path fill="rgb(255,89,176)" fill-opacity="1" d=" M0,-250 C137.97500610351562,-250 250,-137.97500610351562 250,0 C250,137.97500610351562 137.97500610351562,250 0,250 C-137.97500610351562,250 -250,137.97500610351562 -250,0 C-250,-137.97500610351562 -137.97500610351562,-250 0,-250z"/></g></g></g><g clip-path="url(#__lottie_element_45423)" transform="matrix(-0.9659258127212524,-0.258819043636322,0.258819043636322,-0.9659258127212524,426.7767028808594,556.1862182617188)" opacity="1" style="display: block;"><g transform="matrix(0.028131235390901566,0,0,0.028131235390901566,250,155.3776397705078)" opacity="0.9999949419174022" style="display: block;"><g opacity="1" transform="matrix(1,0,0,1,0,0)"><path fill="rgb(255,89,176)" fill-opacity="1" d=" M0,-250 C137.97500610351562,-250 250,-137.97500610351562 250,0 C250,137.97500610351562 137.97500610351562,250 0,250 C-137.97500610351562,250 -250,137.97500610351562 -250,0 C-250,-137.97500610351562 -137.97500610351562,-250 0,-250z"/></g></g></g><g clip-path="url(#__lottie_element_45427)" transform="matrix(-0.7071067690849304,-0.7071067690849304,0.7071067690849304,-0.7071067690849304,250,603.5534057617188)" opacity="1" style="display: block;"><g transform="matrix(0.028131235390901566,0,0,0.028131235390901566,250,155.3776397705078)" opacity="0.9999949419174022" style="display: block;"><g opacity="1" transform="matrix(1,0,0,1,0,0)"><path fill="rgb(255,89,176)" fill-opacity="1" d=" M0,-250 C137.97500610351562,-250 250,-137.97500610351562 250,0 C250,137.97500610351562 137.97500610351562,250 0,250 C-137.97500610351562,250 -250,137.97500610351562 -250,0 C-250,-137.97500610351562 -137.97500610351562,-250 0,-250z"/></g></g></g><g clip-path="url(#__lottie_element_45431)" transform="matrix(-0.7071067690849304,0.7071067690849304,-0.7071067690849304,-0.7071067690849304,603.5534057617188,250)" opacity="1" style="display: block;"><g transform="matrix(0.028131235390901566,0,0,0.028131235390901566,250,155.3776397705078)" opacity="0.9999949419174022" style="display: block;"><g opacity="1" transform="matrix(1,0,0,1,0,0)"><path fill="rgb(255,89,176)" fill-opacity="1" d=" M0,-250 C137.97500610351562,-250 250,-137.97500610351562 250,0 C250,137.97500610351562 137.97500610351562,250 0,250 C-137.97500610351562,250 -250,137.97500610351562 -250,0 C-250,-137.97500610351562 -137.97500610351562,-250 0,-250z"/></g></g></g><g clip-path="url(#__lottie_element_45435)" transform="matrix(-0.258819043636322,0.9659258127212524,-0.9659258127212524,-0.258819043636322,556.1862182617188,73.22329711914062)" opacity="1" style="display: block;"><g transform="matrix(0.028131235390901566,0,0,0.028131235390901566,250,155.3776397705078)" opacity="0.9999949419174022" style="display: block;"><g opacity="1" transform="matrix(1,0,0,1,0,0)"><path fill="rgb(255,89,176)" fill-opacity="1" d=" M0,-250 C137.97500610351562,-250 250,-137.97500610351562 250,0 C250,137.97500610351562 137.97500610351562,250 0,250 C-137.97500610351562,250 -250,137.97500610351562 -250,0 C-250,-137.97500610351562 -137.97500610351562,-250 0,-250z"/></g></g></g><g clip-path="url(#__lottie_element_45439)" transform="matrix(0.258819043636322,0.9659258127212524,-0.9659258127212524,0.258819043636322,426.7767028808594,-56.18621826171875)" opacity="1" style="display: block;"><g transform="matrix(0.028131235390901566,0,0,0.028131235390901566,250,155.3776397705078)" opacity="0.9999949419174022" style="display: block;"><g opacity="1" transform="matrix(1,0,0,1,0,0)"><path fill="rgb(255,89,176)" fill-opacity="1" d=" M0,-250 C137.97500610351562,-250 250,-137.97500610351562 250,0 C250,137.97500610351562 137.97500610351562,250 0,250 C-137.97500610351562,250 -250,137.97500610351562 -250,0 C-250,-137.97500610351562 -137.97500610351562,-250 0,-250z"/></g></g></g><g clip-path="url(#__lottie_element_45443)" transform="matrix(0.7071067690849304,0.7071067690849304,-0.7071067690849304,0.7071067690849304,250,-103.55340576171875)" opacity="1" style="display: block;"><g transform="matrix(0.028131235390901566,0,0,0.028131235390901566,250,155.3776397705078)" opacity="0.9999949419174022" style="display: block;"><g opacity="1" transform="matrix(1,0,0,1,0,0)"><path fill="rgb(255,89,176)" fill-opacity="1" d=" M0,-250 C137.97500610351562,-250 250,-137.97500610351562 250,0 C250,137.97500610351562 137.97500610351562,250 0,250 C-137.97500610351562,250 -250,137.97500610351562 -250,0 C-250,-137.97500610351562 -137.97500610351562,-250 0,-250z"/></g></g></g><g clip-path="url(#__lottie_element_45447)" transform="matrix(0.9659258127212524,0.258819043636322,-0.258819043636322,0.9659258127212524,73.22329711914062,-56.18621826171875)" opacity="1" style="display: block;"><g transform="matrix(0.028131235390901566,0,0,0.028131235390901566,250,155.3776397705078)" opacity="0.9999949419174022" style="display: block;"><g opacity="1" transform="matrix(1,0,0,1,0,0)"><path fill="rgb(255,89,176)" fill-opacity="1" d=" M0,-250 C137.97500610351562,-250 250,-137.97500610351562 250,0 C250,137.97500610351562 137.97500610351562,250 0,250 C-137.97500610351562,250 -250,137.97500610351562 -250,0 C-250,-137.97500610351562 -137.97500610351562,-250 0,-250z"/></g></g></g><g clip-path="url(#__lottie_element_45451)" transform="matrix(0.9659258127212524,-0.258819043636322,0.258819043636322,0.9659258127212524,-56.18621826171875,73.22329711914062)" opacity="1" style="display: block;"><g transform="matrix(0.028131235390901566,0,0,0.028131235390901566,250,155.3776397705078)" opacity="0.9999949419174022" style="display: block;"><g opacity="1" transform="matrix(1,0,0,1,0,0)"><path fill="rgb(255,89,176)" fill-opacity="1" d=" M0,-250 C137.97500610351562,-250 250,-137.97500610351562 250,0 C250,137.97500610351562 137.97500610351562,250 0,250 C-137.97500610351562,250 -250,137.97500610351562 -250,0 C-250,-137.97500610351562 -137.97500610351562,-250 0,-250z"/></g></g></g><g clip-path="url(#__lottie_element_45455)" transform="matrix(0.8660253882408142,0.5,-0.5,0.8660253882408142,158.49365234375,-91.50634765625)" opacity="1" style="display: block;"><g transform="matrix(1,0,0,1,276,249.31298828125)" opacity="1" style="display: block;"><g opacity="1" transform="matrix(1,0,0,1,0,0)"><path stroke-linecap="round" stroke-linejoin="miter" fill-opacity="0" stroke-miterlimit="4" stroke="rgb(252,69,181)" stroke-opacity="1" stroke-width="10" d=" M-26.385000228881836,-15.972999572753906 C-26.423999786376953,-20.481000900268555 -26.46299934387207,-24.89699935913086 -26.499000549316406,-28.972000122070312"/></g></g></g><g clip-path="url(#__lottie_element_45459)" transform="matrix(0,1,-1,0,500,0)" opacity="1" style="display: block;"><g transform="matrix(1,0,0,1,276,249.31298828125)" opacity="1" style="display: block;"><g opacity="1" transform="matrix(1,0,0,1,0,0)"><path stroke-linecap="round" stroke-linejoin="miter" fill-opacity="0" stroke-miterlimit="4" stroke="rgb(252,69,181)" stroke-opacity="1" stroke-width="10" d=" M-26.385000228881836,-15.972999572753906 C-26.423999786376953,-20.481000900268555 -26.46299934387207,-24.89699935913086 -26.499000549316406,-28.972000122070312"/></g></g></g><g clip-path="url(#__lottie_element_45463)" transform="matrix(-0.8660253882408142,0.5,-0.5,-0.8660253882408142,591.50634765625,341.50634765625)" opacity="1" style="display: block;"><g transform="matrix(1,0,0,1,276,249.31298828125)" opacity="1" style="display: block;"><g opacity="1" transform="matrix(1,0,0,1,0,0)"><path stroke-linecap="round" stroke-linejoin="miter" fill-opacity="0" stroke-miterlimit="4" stroke="rgb(252,69,181)" stroke-opacity="1" stroke-width="10" d=" M-26.385000228881836,-15.972999572753906 C-26.423999786376953,-20.481000900268555 -26.46299934387207,-24.89699935913086 -26.499000549316406,-28.972000122070312"/></g></g></g><g clip-path="url(#__lottie_element_45467)" transform="matrix(-0.8660253882408142,-0.5,0.5,-0.8660253882408142,341.50634765625,591.50634765625)" opacity="1" style="display: block;"><g transform="matrix(1,0,0,1,276,249.31298828125)" opacity="1" style="display: block;"><g opacity="1" transform="matrix(1,0,0,1,0,0)"><path stroke-linecap="round" stroke-linejoin="miter" fill-opacity="0" stroke-miterlimit="4" stroke="rgb(252,69,181)" stroke-opacity="1" stroke-width="10" d=" M-26.385000228881836,-15.972999572753906 C-26.423999786376953,-20.481000900268555 -26.46299934387207,-24.89699935913086 -26.499000549316406,-28.972000122070312"/></g></g></g><g clip-path="url(#__lottie_element_45471)" transform="matrix(0,-1,1,0,0,500)" opacity="1" style="display: block;"><g transform="matrix(1,0,0,1,276,249.31298828125)" opacity="1" style="display: block;"><g opacity="1" transform="matrix(1,0,0,1,0,0)"><path stroke-linecap="round" stroke-linejoin="miter" fill-opacity="0" stroke-miterlimit="4" stroke="rgb(252,69,181)" stroke-opacity="1" stroke-width="10" d=" M-26.385000228881836,-15.972999572753906 C-26.423999786376953,-20.481000900268555 -26.46299934387207,-24.89699935913086 -26.499000549316406,-28.972000122070312"/></g></g></g><g clip-path="url(#__lottie_element_45475)" transform="matrix(0.8660253882408142,-0.5,0.5,0.8660253882408142,-91.50634765625,158.49365234375)" opacity="1" style="display: block;"><g transform="matrix(1,0,0,1,276,249.31298828125)" opacity="1" style="display: block;"><g opacity="1" transform="matrix(1,0,0,1,0,0)"><path stroke-linecap="round" stroke-linejoin="miter" fill-opacity="0" stroke-miterlimit="4" stroke="rgb(252,69,181)" stroke-opacity="1" stroke-width="10" d=" M-26.385000228881836,-15.972999572753906 C-26.423999786376953,-20.481000900268555 -26.46299934387207,-24.89699935913086 -26.499000549316406,-28.972000122070312"/></g></g></g><g clip-path="url(#__lottie_element_45479)" transform="matrix(-0.8660253882408142,-0.5,0.5,-0.8660253882408142,341.50634765625,591.50634765625)" opacity="1" style="display: block;"><g transform="matrix(0.03626246750354767,0,0,0.03626246750354767,250,195.4368133544922)" opacity="0.9999949419174022" style="display: block;"><g opacity="1" transform="matrix(1,0,0,1,0,0)"><path fill="rgb(32,226,255)" fill-opacity="1" d=" M0,-250 C137.97500610351562,-250 250,-137.97500610351562 250,0 C250,137.97500610351562 137.97500610351562,250 0,250 C-137.97500610351562,250 -250,137.97500610351562 -250,0 C-250,-137.97500610351562 -137.97500610351562,-250 0,-250z"/></g></g><g transform="matrix(0.024030787870287895,0,0,0.024030787870287895,299.7383728027344,190.76217651367188)" opacity="0.9999949419174022" style="display: block;"><g opacity="1" transform="matrix(1,0,0,1,0,0)"><path fill="rgb(46,129,241)" fill-opacity="1" d=" M0,-250 C137.97500610351562,-250 250,-137.97500610351562 250,0 C250,137.97500610351562 137.97500610351562,250 0,250 C-137.97500610351562,250 -250,137.97500610351562 -250,0 C-250,-137.97500610351562 -137.97500610351562,-250 0,-250z"/></g></g></g><g clip-path="url(#__lottie_element_45483)" transform="matrix(-0.8660253882408142,0.5,-0.5,-0.8660253882408142,591.50634765625,341.50634765625)" opacity="1" style="display: block;"><g transform="matrix(0.03626246750354767,0,0,0.03626246750354767,250,195.4368133544922)" opacity="0.9999949419174022" style="display: block;"><g opacity="1" transform="matrix(1,0,0,1,0,0)"><path fill="rgb(32,226,255)" fill-opacity="1" d=" M0,-250 C137.97500610351562,-250 250,-137.97500610351562 250,0 C250,137.97500610351562 137.97500610351562,250 0,250 C-137.97500610351562,250 -250,137.97500610351562 -250,0 C-250,-137.97500610351562 -137.97500610351562,-250 0,-250z"/></g></g><g transform="matrix(0.024030787870287895,0,0,0.024030787870287895,299.7383728027344,190.76217651367188)" opacity="0.9999949419174022" style="display: block;"><g opacity="1" transform="matrix(1,0,0,1,0,0)"><path fill="rgb(46,129,241)" fill-opacity="1" d=" M0,-250 C137.97500610351562,-250 250,-137.97500610351562 250,0 C250,137.97500610351562 137.97500610351562,250 0,250 C-137.97500610351562,250 -250,137.97500610351562 -250,0 C-250,-137.97500610351562 -137.97500610351562,-250 0,-250z"/></g></g></g><g clip-path="url(#__lottie_element_45487)" transform="matrix(0,1,-1,0,500,0)" opacity="1" style="display: block;"><g transform="matrix(0.03626246750354767,0,0,0.03626246750354767,250,195.4368133544922)" opacity="0.9999949419174022" style="display: block;"><g opacity="1" transform="matrix(1,0,0,1,0,0)"><path fill="rgb(32,226,255)" fill-opacity="1" d=" M0,-250 C137.97500610351562,-250 250,-137.97500610351562 250,0 C250,137.97500610351562 137.97500610351562,250 0,250 C-137.97500610351562,250 -250,137.97500610351562 -250,0 C-250,-137.97500610351562 -137.97500610351562,-250 0,-250z"/></g></g><g transform="matrix(0.024030787870287895,0,0,0.024030787870287895,299.7383728027344,190.76217651367188)" opacity="0.9999949419174022" style="display: block;"><g opacity="1" transform="matrix(1,0,0,1,0,0)"><path fill="rgb(46,129,241)" fill-opacity="1" d=" M0,-250 C137.97500610351562,-250 250,-137.97500610351562 250,0 C250,137.97500610351562 137.97500610351562,250 0,250 C-137.97500610351562,250 -250,137.97500610351562 -250,0 C-250,-137.97500610351562 -137.97500610351562,-250 0,-250z"/></g></g></g><g clip-path="url(#__lottie_element_45491)" transform="matrix(0,-1,1,0,0,500)" opacity="1" style="display: block;"><g transform="matrix(0.03626246750354767,0,0,0.03626246750354767,250,195.4368133544922)" opacity="0.9999949419174022" style="display: block;"><g opacity="1" transform="matrix(1,0,0,1,0,0)"><path fill="rgb(32,226,255)" fill-opacity="1" d=" M0,-250 C137.97500610351562,-250 250,-137.97500610351562 250,0 C250,137.97500610351562 137.97500610351562,250 0,250 C-137.97500610351562,250 -250,137.97500610351562 -250,0 C-250,-137.97500610351562 -137.97500610351562,-250 0,-250z"/></g></g><g transform="matrix(0.024030787870287895,0,0,0.024030787870287895,299.7383728027344,190.76217651367188)" opacity="0.9999949419174022" style="display: block;"><g opacity="1" transform="matrix(1,0,0,1,0,0)"><path fill="rgb(46,129,241)" fill-opacity="1" d=" M0,-250 C137.97500610351562,-250 250,-137.97500610351562 250,0 C250,137.97500610351562 137.97500610351562,250 0,250 C-137.97500610351562,250 -250,137.97500610351562 -250,0 C-250,-137.97500610351562 -137.97500610351562,-250 0,-250z"/></g></g></g><g clip-path="url(#__lottie_element_45495)" transform="matrix(0.8660253882408142,0.5,-0.5,0.8660253882408142,158.49365234375,-91.50634765625)" opacity="1" style="display: block;"><g transform="matrix(0.03626246750354767,0,0,0.03626246750354767,250,195.4368133544922)" opacity="0.9999949419174022" style="display: block;"><g opacity="1" transform="matrix(1,0,0,1,0,0)"><path fill="rgb(32,226,255)" fill-opacity="1" d=" M0,-250 C137.97500610351562,-250 250,-137.97500610351562 250,0 C250,137.97500610351562 137.97500610351562,250 0,250 C-137.97500610351562,250 -250,137.97500610351562 -250,0 C-250,-137.97500610351562 -137.97500610351562,-250 0,-250z"/></g></g><g transform="matrix(0.024030787870287895,0,0,0.024030787870287895,299.7383728027344,190.76217651367188)" opacity="0.9999949419174022" style="display: block;"><g opacity="1" transform="matrix(1,0,0,1,0,0)"><path fill="rgb(46,129,241)" fill-opacity="1" d=" M0,-250 C137.97500610351562,-250 250,-137.97500610351562 250,0 C250,137.97500610351562 137.97500610351562,250 0,250 C-137.97500610351562,250 -250,137.97500610351562 -250,0 C-250,-137.97500610351562 -137.97500610351562,-250 0,-250z"/></g></g></g><g clip-path="url(#__lottie_element_45499)" transform="matrix(0.8660253882408142,-0.5,0.5,0.8660253882408142,-91.50634765625,158.49365234375)" opacity="1" style="display: block;"><g transform="matrix(0.03626246750354767,0,0,0.03626246750354767,250,195.4368133544922)" opacity="0.9999949419174022" style="display: block;"><g opacity="1" transform="matrix(1,0,0,1,0,0)"><path fill="rgb(32,226,255)" fill-opacity="1" d=" M0,-250 C137.97500610351562,-250 250,-137.97500610351562 250,0 C250,137.97500610351562 137.97500610351562,250 0,250 C-137.97500610351562,250 -250,137.97500610351562 -250,0 C-250,-137.97500610351562 -137.97500610351562,-250 0,-250z"/></g></g><g transform="matrix(0.024030787870287895,0,0,0.024030787870287895,299.7383728027344,190.76217651367188)" opacity="0.9999949419174022" style="display: block;"><g opacity="1" transform="matrix(1,0,0,1,0,0)"><path fill="rgb(46,129,241)" fill-opacity="1" d=" M0,-250 C137.97500610351562,-250 250,-137.97500610351562 250,0 C250,137.97500610351562 137.97500610351562,250 0,250 C-137.97500610351562,250 -250,137.97500610351562 -250,0 C-250,-137.97500610351562 -137.97500610351562,-250 0,-250z"/></g></g></g><g clip-path="url(#__lottie_element_45503)" transform="matrix(0.5,-0.8660253882408142,0.8660253882408142,0.5,-91.50634765625,341.50634765625)" opacity="1" style="display: block;"><g transform="matrix(1,0,0,1,276,374.60400390625)" opacity="1" style="display: block;"><g opacity="1" transform="matrix(1,0,0,1,0,0)"><path stroke-linecap="round" stroke-linejoin="miter" fill-opacity="0" stroke-miterlimit="4" stroke="rgb(185,62,255)" stroke-opacity="1" stroke-width="10" d=" M-25.450000762939453,-251.2530059814453 C-25.43899917602539,-257.2229919433594 -25.42799949645996,-262.91900634765625 -25.41699981689453,-268.2850036621094"/></g></g><g transform="matrix(1,0,0,1,276,374.60400390625)" opacity="1" style="display: block;"><g opacity="1" transform="matrix(1,0,0,1,0,0)"><path stroke-linecap="round" stroke-linejoin="miter" fill-opacity="0" stroke-miterlimit="4" stroke="rgb(109,39,255)" stroke-opacity="1" stroke-width="8" d=" M28.340999603271484,-202.04600524902344 C29.99799919128418,-206.93600463867188 31.57900047302246,-211.60000610351562 33.06800079345703,-215.99400329589844"/></g></g></g><g clip-path="url(#__lottie_element_45507)" transform="matrix(-0.5,-0.8660253882408142,0.8660253882408142,-0.5,158.49365234375,591.50634765625)" opacity="1" style="display: block;"><g transform="matrix(1,0,0,1,276,374.60400390625)" opacity="1" style="display: block;"><g opacity="1" transform="matrix(1,0,0,1,0,0)"><path stroke-linecap="round" stroke-linejoin="miter" fill-opacity="0" stroke-miterlimit="4" stroke="rgb(185,62,255)" stroke-opacity="1" stroke-width="10" d=" M-25.450000762939453,-251.2530059814453 C-25.43899917602539,-257.2229919433594 -25.42799949645996,-262.91900634765625 -25.41699981689453,-268.2850036621094"/></g></g><g transform="matrix(1,0,0,1,276,374.60400390625)" opacity="1" style="display: block;"><g opacity="1" transform="matrix(1,0,0,1,0,0)"><path stroke-linecap="round" stroke-linejoin="miter" fill-opacity="0" stroke-miterlimit="4" stroke="rgb(109,39,255)" stroke-opacity="1" stroke-width="8" d=" M28.340999603271484,-202.04600524902344 C29.99799919128418,-206.93600463867188 31.57900047302246,-211.60000610351562 33.06800079345703,-215.99400329589844"/></g></g></g><g clip-path="url(#__lottie_element_45511)" transform="matrix(-1,0,0,-1,500,500)" opacity="1" style="display: block;"><g transform="matrix(1,0,0,1,276,374.60400390625)" opacity="1" style="display: block;"><g opacity="1" transform="matrix(1,0,0,1,0,0)"><path stroke-linecap="round" stroke-linejoin="miter" fill-opacity="0" stroke-miterlimit="4" stroke="rgb(185,62,255)" stroke-opacity="1" stroke-width="10" d=" M-25.450000762939453,-251.2530059814453 C-25.43899917602539,-257.2229919433594 -25.42799949645996,-262.91900634765625 -25.41699981689453,-268.2850036621094"/></g></g><g transform="matrix(1,0,0,1,276,374.60400390625)" opacity="1" style="display: block;"><g opacity="1" transform="matrix(1,0,0,1,0,0)"><path stroke-linecap="round" stroke-linejoin="miter" fill-opacity="0" stroke-miterlimit="4" stroke="rgb(109,39,255)" stroke-opacity="1" stroke-width="8" d=" M28.340999603271484,-202.04600524902344 C29.99799919128418,-206.93600463867188 31.57900047302246,-211.60000610351562 33.06800079345703,-215.99400329589844"/></g></g></g><g clip-path="url(#__lottie_element_45515)" transform="matrix(-0.5,0.8660253882408142,-0.8660253882408142,-0.5,591.50634765625,158.49365234375)" opacity="1" style="display: block;"><g transform="matrix(1,0,0,1,276,374.60400390625)" opacity="1" style="display: block;"><g opacity="1" transform="matrix(1,0,0,1,0,0)"><path stroke-linecap="round" stroke-linejoin="miter" fill-opacity="0" stroke-miterlimit="4" stroke="rgb(185,62,255)" stroke-opacity="1" stroke-width="10" d=" M-25.450000762939453,-251.2530059814453 C-25.43899917602539,-257.2229919433594 -25.42799949645996,-262.91900634765625 -25.41699981689453,-268.2850036621094"/></g></g><g transform="matrix(1,0,0,1,276,374.60400390625)" opacity="1" style="display: block;"><g opacity="1" transform="matrix(1,0,0,1,0,0)"><path stroke-linecap="round" stroke-linejoin="miter" fill-opacity="0" stroke-miterlimit="4" stroke="rgb(109,39,255)" stroke-opacity="1" stroke-width="8" d=" M28.340999603271484,-202.04600524902344 C29.99799919128418,-206.93600463867188 31.57900047302246,-211.60000610351562 33.06800079345703,-215.99400329589844"/></g></g></g><g clip-path="url(#__lottie_element_45519)" transform="matrix(0.5,0.8660253882408142,-0.8660253882408142,0.5,341.50634765625,-91.50634765625)" opacity="1" style="display: block;"><g transform="matrix(1,0,0,1,276,374.60400390625)" opacity="1" style="display: block;"><g opacity="1" transform="matrix(1,0,0,1,0,0)"><path stroke-linecap="round" stroke-linejoin="miter" fill-opacity="0" stroke-miterlimit="4" stroke="rgb(185,62,255)" stroke-opacity="1" stroke-width="10" d=" M-25.450000762939453,-251.2530059814453 C-25.43899917602539,-257.2229919433594 -25.42799949645996,-262.91900634765625 -25.41699981689453,-268.2850036621094"/></g></g><g transform="matrix(1,0,0,1,276,374.60400390625)" opacity="1" style="display: block;"><g opacity="1" transform="matrix(1,0,0,1,0,0)"><path stroke-linecap="round" stroke-linejoin="miter" fill-opacity="0" stroke-miterlimit="4" stroke="rgb(109,39,255)" stroke-opacity="1" stroke-width="8" d=" M28.340999603271484,-202.04600524902344 C29.99799919128418,-206.93600463867188 31.57900047302246,-211.60000610351562 33.06800079345703,-215.99400329589844"/></g></g></g><g clip-path="url(#__lottie_element_45523)" transform="matrix(1,0,0,1,0,0)" opacity="1" style="display: block;"><g transform="matrix(1,0,0,1,276,374.60400390625)" opacity="1" style="display: block;"><g opacity="1" transform="matrix(1,0,0,1,0,0)"><path stroke-linecap="round" stroke-linejoin="miter" fill-opacity="0" stroke-miterlimit="4" stroke="rgb(185,62,255)" stroke-opacity="1" stroke-width="10" d=" M-25.450000762939453,-251.2530059814453 C-25.43899917602539,-257.2229919433594 -25.42799949645996,-262.91900634765625 -25.41699981689453,-268.2850036621094"/></g></g><g transform="matrix(1,0,0,1,276,374.60400390625)" opacity="1" style="display: block;"><g opacity="1" transform="matrix(1,0,0,1,0,0)"><path stroke-linecap="round" stroke-linejoin="miter" fill-opacity="0" stroke-miterlimit="4" stroke="rgb(109,39,255)" stroke-opacity="1" stroke-width="8" d=" M28.340999603271484,-202.04600524902344 C29.99799919128418,-206.93600463867188 31.57900047302246,-211.60000610351562 33.06800079345703,-215.99400329589844"/></g></g></g></g></svg>